Coordinates
version=1
nRows=8
nColumns=63
inDegrees=yes

Units are S.I. units (second, meters, Newtons, ...)
If the header above contains a line with 'inDegrees', this indicates whether rotational values are in degrees (yes) or radians (no).

endheader
time	pelvis_tilt	pelvis_list	pelvis_rotation	pelvis_tx	pelvis_ty	pelvis_tz	hip_flexion_r	hip_adduction_r	hip_rotation_r	knee_angle_r	knee_angle_r_beta	ankle_angle_r	subtalar_angle_r	mtp_angle_r	hip_flexion_l	hip_adduction_l	hip_rotation_l	knee_angle_l	knee_angle_l_beta	ankle_angle_l	subtalar_angle_l	mtp_angle_l	L5_S1_Flex_Ext	L5_S1_Lat_Bending	L5_S1_axial_rotation	L4_L5_Flex_Ext	L4_L5_Lat_Bending	L4_L5_axial_rotation	L3_L4_Flex_Ext	L3_L4_Lat_Bending	L3_L4_axial_rotation	L2_L3_Flex_Ext	L2_L3_Lat_Bending	L2_L3_axial_rotation	L1_L2_Flex_Ext	L1_L2_Lat_Bending	L1_L2_axial_rotation	L1_T12_Flex_Ext	L1_T12_Lat_Bending	L1_T12_axial_rotation	Abs_r3	Abs_r2	Abs_r1	Abs_t1	Abs_t2	neck_flexion	neck_bending	neck_rotation	arm_flex_r	arm_add_r	arm_rot_r	elbow_flex_r	pro_sup_r	wrist_flex_r	wrist_dev_r	arm_flex_l	arm_add_l	arm_rot_l	elbow_flex_l	pro_sup_l	wrist_flex_l	wrist_dev_l
      4.22033898	     -3.74651312	     -3.82439074	     97.01507913	      0.18056656	      1.07982204	      0.48371053	      3.48482205	     -2.66517511	     -5.88146966	      2.16472168	      0.03778152	     15.43354688	      6.03460303	      0.00000000	      4.69794318	      2.04566953	     -6.01299315	      3.56114619	      0.06215373	      9.69153668	     10.66320107	      0.00000000	      0.17632457	     -0.49407635	     -0.58601423	      0.32745236	     -0.65712154	     -0.62264012	      0.28968363	     -1.20129723	     -0.62264012	      0.20152135	     -1.20129723	     -0.51276245	      0.16373499	     -1.00752049	     -0.47613656	      0.10075186	     -0.76532426	     -0.43951067	      1.25946876	     -5.58909047	     -3.25923536	      0.00000000	      0.00000000	      7.10404522	      0.96230510	     -2.67023135	     -1.36149778	    -14.86517368	     35.72482483	     97.46761100	     68.29905129	      0.50095301	     14.36655530	     -8.16344184	    -22.70185177	     20.83276491	     97.31811318	     87.37005504	     14.12112069	      9.08110816
      4.23728814	     -3.76775802	     -3.93992178	     96.48968974	      0.18086583	      1.07904368	      0.48469072	      3.81074212	     -2.69773081	     -5.56737824	      2.36164486	      0.04121848	     15.63998007	      6.18833026	      0.00000000	      4.92326621	      2.06907428	     -6.49106175	      3.72873746	      0.06507875	     10.04080835	     10.46721883	      0.00000000	      0.18507776	     -0.48289277	     -0.48810759	      0.34370790	     -0.64224739	     -0.51861432	      0.30406424	     -1.17410549	     -0.51861432	      0.21152537	     -1.17410549	     -0.42709414	      0.17186320	     -0.98471494	     -0.39658742	      0.10575343	     -0.74800091	     -0.36608069	      1.32199190	     -5.46257964	     -2.71470799	      0.00000000	      0.00000000	      7.31850498	      0.81202227	     -2.54280564	     -1.48211580	    -14.46666219	     35.36004813	     96.21117533	     67.42767548	      0.93237172	     13.06307155	     -7.93368147	    -22.58039344	     20.91881113	     96.86335589	     87.55392473	     14.17411311	      9.42362728
      4.25423729	     -3.73878875	     -4.02448659	     95.95701455	      0.18102032	      1.07838446	      0.48571187	      4.13361108	     -2.68542256	     -5.34647836	      2.61477651	      0.04563646	     15.90591378	      6.51400914	      0.00000000	      5.06444332	      2.04497265	     -6.98634761	      3.77419433	      0.06587212	     10.23151194	     10.34563381	      0.00000000	      0.19567579	     -0.46699662	     -0.38340393	      0.36338950	     -0.62110551	     -0.40736668	      0.32147575	     -1.13545559	     -0.40736668	      0.22363786	     -1.13545559	     -0.33547844	      0.18170454	     -0.95229951	     -0.31151569	      0.11180914	     -0.72337777	     -0.28755295	      1.39769258	     -5.28275920	     -2.13237764	      0.00000000	      0.00000000	      7.37191864	      0.74353546	     -2.70890052	     -1.27269762	    -14.50813938	     35.64710223	     94.71316250	     66.36450743	      1.99572994	     11.36210733	     -7.48461569	    -22.57007755	     21.41163894	     96.16241398	     87.68389097	     14.55645737	      9.89624983
      4.27118644	     -3.73299991	     -4.08060397	     95.70701135	      0.18085486	      1.07781438	      0.48644089	      4.30094973	     -2.70782417	     -5.43076091	      2.73684958	      0.04776704	     16.24059255	      7.08422498	      0.00000000	      5.17459941	      2.04994360	     -7.21985680	      3.82098839	      0.06668883	     10.29784083	     10.34511394	      0.00000000	      0.20250467	     -0.45730391	     -0.33553642	      0.37607142	     -0.60821420	     -0.35650744	      0.33269492	     -1.11188872	     -0.35650744	      0.23144259	     -1.11188872	     -0.29359437	      0.18804584	     -0.93253413	     -0.27262334	      0.11571117	     -0.70836375	     -0.25165231	      1.44647062	     -5.17311326	     -1.86615290	      0.00000000	      0.00000000	      7.62879332	      0.65210271	     -3.02272116	     -1.23161299	    -14.57905751	     36.13781482	     93.11433332	     65.35525947	      3.31673274	      9.58243652	     -7.32086596	    -22.40251151	     21.67497489	     95.33867100	     87.64983025	     15.18640069	     10.20291166
      4.28813559	     -3.67873383	     -4.14609716	     95.69380431	      0.18033367	      1.07727299	      0.48719414	      4.46988893	     -2.69263471	     -5.59290043	      2.88672350	      0.05038283	     16.56617550	      7.34179757	      0.00000000	      5.35775549	      2.02646008	     -7.17593702	      3.95232238	      0.06898104	     10.19794859	     10.15916252	      0.00000000	      0.21166723	     -0.44052760	     -0.33574470	      0.39308722	     -0.58590170	     -0.35672874	      0.34774809	     -1.07109880	     -0.35672874	      0.24191448	     -1.07109880	     -0.29377661	      0.19655419	     -0.89832387	     -0.27279257	      0.12094666	     -0.68237725	     -0.25180852	      1.51191787	     -4.98333627	     -1.86731128	      0.00000000	      0.00000000	      7.94221485	      0.55094525	     -3.06542429	     -1.05661448	    -14.91132196	     37.01839287	     91.73036696	     65.25720669	      4.22965989	      8.76292393	     -7.16716758	    -22.32613258	     22.24191143	     94.38091732	     87.52191279	     15.68637894	     10.37474307
      4.30508475	     -3.60223460	     -4.15641434	     95.78476953	      0.17970234	      1.07692668	      0.48773714	      4.53513016	     -2.65970954	     -5.94160894	      3.00030631	      0.05236522	     16.88442282	      7.83101073	      0.00000000	      5.48327927	      1.98984122	     -6.71979044	      4.09628021	      0.07149358	      9.93406823	      9.59395899	      0.00000000	      0.21362244	     -0.42313956	     -0.35791091	      0.39671824	     -0.56277561	     -0.38028034	      0.35096031	     -1.02882152	     -0.38028034	      0.24414909	     -1.02882152	     -0.31317205	      0.19836980	     -0.86286619	     -0.29080261	      0.12206386	     -0.65544318	     -0.26843318	      1.52588373	     -4.78663932	     -1.99059310	      0.00000000	      0.00000000	      8.37025835	      0.51378450	     -3.05352637	     -0.84073523	    -15.26332889	     37.98725123	     90.08362958	     65.62705763	      6.05117355	      7.41733755	     -7.29930028	    -22.01193156	     22.53123163	     93.29654909	     87.11842525	     16.68510946	     10.43974407
      4.32203390	     -3.54407040	     -4.21225868	     95.98958908	      0.17883773	      1.07659130	      0.48803742	      4.62176418	     -2.69110270	     -7.09615905	      3.14086529	      0.05481844	     17.26424273	      9.26379515	      0.00000000	      5.58551063	      2.05552255	     -5.07394634	      4.10353627	      0.07162022	      9.41590068	      7.42830149	      0.00000000	      0.22345302	     -0.41000261	     -0.39224525	      0.41497460	     -0.54530348	     -0.41676057	      0.36711096	     -0.99688036	     -0.41676057	      0.25538445	     -0.99688036	     -0.34321459	      0.20749847	     -0.83607733	     -0.31869926	      0.12768105	     -0.63509405	     -0.29418393	      1.59610257	     -4.63803158	     -2.18155038	      0.00000000	      0.00000000	      8.90668445	      0.57911332	     -3.06564713	     -0.85297482	    -15.49678063	     38.33780504	     88.69134244	     67.99522045	      8.21681777	      7.16706236	     -7.54436144	    -21.61028936	     22.74732853	     92.25209576	     86.94445393	     17.83357841	     10.83865512
      4.33898305	     -3.57240237	     -4.24050481	     96.05864965	      0.17832974	      1.07629845	      0.48787369	      4.58710281	     -2.74586130	     -7.09604399	      3.13957164	      0.05479586	     17.46723128	      9.25651116	      0.00000000	      5.61368566	      2.11462927	     -5.02005031	      4.13077204	      0.07209557	      9.41413039	      7.42810252	      0.00000000	      0.23538319	     -0.40961001	     -0.38960534	      0.43713012	     -0.54478131	     -0.41395568	      0.38671104	     -0.99592577	     -0.41395568	      0.26901945	     -0.99592577	     -0.34090468	      0.21857683	     -0.83527672	     -0.31655434	      0.13449795	     -0.63448590	     -0.29220401	      1.68131859	     -4.63359031	     -2.16686804	      0.00000000	      0.00000000	      9.36275609	      0.62993134	     -3.15313565	     -1.06339611	    -15.73442119	     38.82289536	     87.70163678	     68.21998255	      8.32252969	      7.42568727	     -7.81289293	    -21.26024656	     23.10120523	     91.26158559	     86.96536037	     17.78564446	     11.00069301
